#!OML:ASF H:\GeneralSubjects\Female5\Project 1\Capture day 1\Session 1\Female5.ASF
:FULLY-SPECIFIED
:DEGREES
448
root -27.4967 15.5958 -0.202949 186.949 -7.84481 541.85
lowerback 22.5362 -4.87587 -9.49107
upperback -17.347 -16.0643 12.5747
thorax -35.883 1.45532 39.5152
lowerneck -5.07429 1.10208 -4.51842
upperneck 45.0881 17.0177 -10.5372
head 19.4607 8.23372 -0.270394
rclavicle 7.4743e-014 -1.84472e-013
rhumerus -93.703 56.7132 -107.521
rradius 34.7246
rwrist -22.2698
rhand -22.4491 -23.2225
rfingers 7.12502
rthumb 3.97508 -53.1652
lclavicle 7.4743e-014 -1.84472e-013
lhumerus -75.3314 33.3724 74.7836
lradius 37.9325
lwrist -11.4009
lhand -26.739 35.0985
lfingers 7.12502
lthumb -0.168003 65.0782
rfemur 8.31433 20.3631 37.547
rtibia 14.8834
rfoot -21.8757 1.83288
rtoes 6.91207
lfemur -27.1131 -24.8205 -14.5438
ltibia 19.8745
lfoot -6.61511 1.22813
ltoes -67.8251
449
root -27.6114 15.6104 -0.335451 186.844 -7.08239 541.367
lowerback 22.6466 -4.83778 -10.083
upperback -17.282 -16.1906 12.4404
thorax -35.5557 1.43993 39.6734
lowerneck -5.33725 0.970955 -4.67549
upperneck 45.0227 16.4941 -10.3437
head 19.371 7.92558 -0.258893
rclavicle 1.1291e-013 -1.84472e-013
rhumerus -93.3207 56.6109 -107.228
rradius 34.9447
rwrist -22.3706
rhand -21.9482 -22.785
rfingers 7.12502
rthumb 4.45878 -52.7181
lclavicle 1.1291e-013 -1.84472e-013
lhumerus -73.5291 33.1001 76.6898
lradius 38.9026
lwrist -11.0712
lhand -26.9625 34.8923
lfingers 7.12502
lthumb -0.383878 64.8716
rfemur 8.15432 20.5705 37.2773
rtibia 17.3688
rfoot -22.7297 0.14761
rtoes 8.62032
lfemur -25.5775 -25.0368 -15.9459
ltibia 19.2929
lfoot -7.26555 1.82124
ltoes -67.7909
450
root -27.7291 15.6234 -0.461038 186.793 -6.19713 541.066
lowerback 22.7193 -4.84739 -10.1548
upperback -17.222 -16.1871 12.4115
thorax -35.3902 1.35847 39.5402
lowerneck -5.78558 0.963073 -5.0573
upperneck 44.9198 16.2562 -10.1814
head 19.332 7.6773 -0.161971
rclavicle -7.95139e-015 3.49861e-014
rhumerus -93.0442 56.6718 -107.203
rradius 35.151
rwrist -21.8492
rhand -21.4703 -22.8154
rfingers 7.12502
rthumb 4.92026 -52.7382
lclavicle -7.95139e-015 3.49861e-014
lhumerus -71.9475 32.866 78.4065
lradius 39.9756
lwrist -10.6226
lhand -27.0711 34.5427
lfingers 7.12502
lthumb -0.488787 64.5219
rfemur 7.45303 18.132 35.8523
rtibia 19.2551
rfoot -21.7935 0.58001
rtoes 9.96519
lfemur -24.2859 -24.8666 -17.1103
ltibia 18.9326
lfoot -7.94439 2.08499
ltoes -67.1526
451
root -27.8452 15.6355 -0.577732 186.995 -5.17349 540.786
lowerback 22.5733 -4.77454 -10.3422
upperback -17.2109 -16.1096 12.4008
thorax -35.1169 1.27911 39.4191
lowerneck -5.99371 0.956888 -5.14796
upperneck 44.5874 16.0111 -10.3173
head 19.1489 7.4729 -0.271885
rclavicle -7.4743e-014 1.145e-013
rhumerus -92.9134 56.8328 -107.596
rradius 35.3164
rwrist -21.1808
rhand -21.0357 -22.7493
rfingers 7.12502
rthumb 5.33985 -52.6621
lclavicle -7.4743e-014 1.145e-013
lhumerus -70.4332 32.4843 80.0977
lradius 41.0676
lwrist -10.342
lhand -27.2739 34.2436
lfingers 7.12502
lthumb -0.684667 64.2222
rfemur 6.29268 15.6462 34.3063
rtibia 21.54
rfoot -20.9422 0.302969
rtoes 6.44508
lfemur -23.4566 -24.4949 -18.0747
ltibia 18.7055
lfoot -8.58666 2.41952
ltoes -67.1146
452
root -27.956 15.6393 -0.683815 187.335 -4.05447 540.351
lowerback 22.3437 -4.65682 -10.7562
upperback -17.2201 -16.0516 12.3612
thorax -34.7365 1.2157 39.3961
lowerneck -6.16045 0.965861 -5.51066
upperneck 44.2137 15.6826 -10.1968
head 18.853 7.21071 -0.235652
rclavicle -9.85972e-014 1.78111e-013
rhumerus -92.6323 57.043 -107.88
rradius 35.5873
rwrist -20.2876
rhand -20.6473 -22.0334
rfingers 7.12502
rthumb 5.71488 -51.9363
lclavicle -9.85972e-014 1.78111e-013
lhumerus -69.1526 32.2159 81.5095
lradius 42.2321
lwrist -10.3423
lhand -27.5804 34.0044
lfingers 7.12502
lthumb -0.980664 63.9819
rfemur 4.45417 14.3689 33.1286
rtibia 25.2478
rfoot -21.1993 -1.01521
rtoes 4.4728
lfemur -22.9323 -24.0177 -19.0971
ltibia 18.6077
lfoot -9.2593 2.63537
ltoes -66.9132
453
root -28.0661 15.6337 -0.780115 187.579 -2.95016 539.925
lowerback 22.2587 -4.54486 -11.0946
upperback -17.1764 -15.9439 12.2808
thorax -34.4747 1.19383 39.2708
lowerneck -5.9725 0.991224 -5.11592
upperneck 43.5226 15.4889 -10.8377
head 18.4632 7.10132 -0.66998
rclavicle -7.95139e-014 -6.04305e-014
rhumerus -92.4266 57.2948 -108.314
rradius 36.0472
rwrist -19.4625
rhand -20.2297 -21.3838
rfingers 7.12502
rthumb 6.11801 -51.2755
lclavicle -7.95139e-014 -6.04305e-014
lhumerus -68.0435 31.8602 82.784
lradius 43.5272
lwrist -10.1962
lhand -27.8752 34.0025
lfingers 7.12502
lthumb -1.26539 63.9785
rfemur 2.69815 12.3471 31.7026
rtibia 28.6679
rfoot -20.9587 -1.98933
rtoes 6.35041
lfemur -22.584 -23.5179 -20.1104
ltibia 18.874
lfoot -9.95666 2.72134
ltoes -66.7331
